<svg id="svg" version="1.1" xmlns="http://www.w3.org/2000/svg" xmlns:xlink="http://www.w3.org/1999/xlink" width="400" height="400" viewBox="0, 0, 400,400"><g id="svgg"><path id="path0" d="M105.895 92.871 L 105.062 93.555 105.168 114.063 L 105.273 134.570 127.051 134.671 L 148.828 134.772 148.828 113.480 L 148.828 92.188 127.778 92.188 C 108.307 92.188,106.665 92.239,105.895 92.871 M250.875 92.510 C 250.488 92.757,250.405 97.258,250.485 113.697 L 250.586 134.570 271.875 134.570 L 293.164 134.570 293.164 113.477 L 293.164 92.383 272.266 92.289 C 260.771 92.238,251.146 92.337,250.875 92.510 M177.914 188.770 C 177.811 189.038,177.772 198.398,177.828 209.570 L 177.930 229.883 199.389 229.984 C 216.296 230.063,220.915 229.981,221.165 229.593 C 221.469 229.120,221.487 200.516,221.187 192.285 L 221.042 188.281 199.571 188.281 C 182.755 188.281,178.060 188.387,177.914 188.770 M178.219 235.871 C 177.832 236.117,177.749 240.578,177.829 256.861 L 177.930 277.539 199.609 277.539 L 221.289 277.539 221.390 257.456 C 221.479 239.960,221.414 237.256,220.893 236.460 L 220.294 235.547 199.503 235.553 C 188.067 235.556,178.490 235.699,178.219 235.871 " stroke="none" fill="#e96824" fill-rule="evenodd"></path><path id="path1" d="M0.000 200.000 L 0.000 400.000 200.000 400.000 L 400.000 400.000 400.000 200.000 L 400.000 0.000 200.000 0.000 L 0.000 0.000 0.000 200.000 M148.828 113.480 L 148.828 134.772 127.051 134.671 L 105.273 134.570 105.168 114.063 L 105.062 93.555 105.895 92.871 C 106.665 92.239,108.307 92.188,127.778 92.188 L 148.828 92.188 148.828 113.480 M197.008 98.340 C 197.148 101.724,197.264 111.304,197.264 119.629 L 197.266 134.766 175.840 134.766 L 154.414 134.766 154.152 117.871 C 153.884 100.500,153.968 93.426,154.455 92.638 C 154.660 92.307,160.293 92.188,175.743 92.188 L 196.753 92.188 197.008 98.340 M245.102 109.473 C 245.252 118.979,245.317 128.516,245.246 130.664 L 245.117 134.570 224.068 134.671 C 208.847 134.744,202.871 134.650,202.486 134.331 C 201.810 133.770,201.687 94.195,202.357 92.943 C 202.750 92.210,203.400 92.188,223.796 92.188 L 244.830 92.188 245.102 109.473 M293.164 113.477 L 293.164 134.570 271.875 134.570 L 250.586 134.570 250.485 113.697 C 250.405 97.258,250.488 92.757,250.875 92.510 C 251.146 92.337,260.771 92.238,272.266 92.289 L 293.164 92.383 293.164 113.477 M220.866 140.471 C 221.499 140.714,221.862 180.591,221.247 182.195 C 221.035 182.748,218.743 182.813,199.372 182.813 L 177.734 182.813 177.734 161.784 C 177.734 150.218,177.852 140.638,177.995 140.495 C 178.320 140.169,220.020 140.147,220.866 140.471 M221.187 192.285 C 221.487 200.516,221.469 229.120,221.165 229.593 C 220.915 229.981,216.296 230.063,199.389 229.984 L 177.930 229.883 177.828 209.570 C 177.772 198.398,177.811 189.038,177.914 188.770 C 178.060 188.387,182.755 188.281,199.571 188.281 L 221.042 188.281 221.187 192.285 M220.893 236.460 C 221.414 237.256,221.479 239.960,221.390 257.456 L 221.289 277.539 199.609 277.539 L 177.930 277.539 177.829 256.861 C 177.749 240.578,177.832 236.117,178.219 235.871 C 178.490 235.699,188.067 235.556,199.503 235.553 L 220.294 235.547 220.893 236.460 M221.390 304.395 L 221.289 325.586 200.391 325.694 C 188.896 325.753,179.097 325.706,178.613 325.589 L 177.734 325.376 177.734 304.517 C 177.734 288.196,177.841 283.616,178.223 283.462 C 178.491 283.353,188.336 283.251,200.101 283.234 L 221.491 283.203 221.390 304.395 " stroke="none" fill="#0c1b2b" fill-rule="evenodd"></path><path id="path2" d="M202.357 92.943 C 201.687 94.195,201.810 133.770,202.486 134.331 C 202.871 134.650,208.847 134.744,224.068 134.671 L 245.117 134.570 245.246 130.664 C 245.317 128.516,245.252 118.979,245.102 109.473 L 244.830 92.188 223.796 92.188 C 203.400 92.188,202.750 92.210,202.357 92.943 M177.995 140.495 C 177.852 140.638,177.734 150.218,177.734 161.784 L 177.734 182.813 199.372 182.813 C 218.743 182.813,221.035 182.748,221.247 182.195 C 221.862 180.591,221.499 140.714,220.866 140.471 C 220.020 140.147,178.320 140.169,177.995 140.495 " stroke="none" fill="#3cac55" fill-rule="evenodd"></path><path id="path3" d="M154.785 92.446 C 154.403 92.600,154.297 97.221,154.297 113.704 L 154.297 134.766 175.781 134.766 L 197.266 134.766 197.266 120.570 C 197.266 112.763,197.150 103.183,197.009 99.281 L 196.752 92.188 176.013 92.218 C 164.606 92.235,155.054 92.338,154.785 92.446 " stroke="none" fill="#0773c4" fill-rule="evenodd"></path><path id="path4" d="M154.013 98.438 C 154.013 99.404,154.089 99.800,154.182 99.316 C 154.275 98.833,154.275 98.042,154.182 97.559 C 154.089 97.075,154.013 97.471,154.013 98.438 M154.070 107.813 C 154.070 112.002,154.127 113.716,154.197 111.621 C 154.268 109.526,154.268 106.099,154.197 104.004 C 154.127 101.909,154.070 103.623,154.070 107.813 M178.223 283.462 C 177.841 283.616,177.734 288.196,177.734 304.517 L 177.734 325.376 178.613 325.589 C 179.097 325.706,188.896 325.753,200.391 325.694 L 221.289 325.586 221.390 304.395 L 221.491 283.203 200.101 283.234 C 188.336 283.251,178.491 283.353,178.223 283.462 " stroke="none" fill="#6a3c92" fill-rule="evenodd"></path></g></svg>